<svg xmlns="http://www.w3.org/2000/svg" xmlns:xlink="http://www.w3.org/1999/xlink" id="Layer_1" x="0" y="0" version="1.1" viewBox="0 0 1080 1080" style="enable-background:new 0 0 1080 1080" xml:space="preserve"><style type="text/css">.st0{fill:#fff}.st1{fill:#50f0ff}.st2{fill:#0744dd}.st3{fill:#ffc900}.st4{fill:#ff0036}</style><switch><g><g><g><path d="M632.87,599.2h-30.1c-16.59,0-30.1-13.5-30.1-30.1c0-16.59,13.5-30.1,30.1-30.1s30.1,13.5,30.1,30.1V599.2z M602.78,551.23c-9.86,0-17.88,8.02-17.88,17.88c0,9.86,8.02,17.87,17.88,17.87h17.87v-17.87 C620.65,559.25,612.64,551.23,602.78,551.23z" class="st0"/><path d="M834.83,599.2h-30.1c-16.59,0-30.1-13.5-30.1-30.1c0-16.59,13.5-30.1,30.1-30.1s30.1,13.5,30.1,30.1V599.2z M804.74,551.23c-9.86,0-17.88,8.02-17.88,17.88c0,9.86,8.02,17.87,17.88,17.87h17.87v-17.87 C822.61,559.25,814.59,551.23,804.74,551.23z" class="st0"/><path d="M737.41,599.22c-16.6,0-30.11-13.51-30.11-30.11v-28.24h12.23v28.24c0,9.86,8.02,17.88,17.88,17.88 c9.86,0,17.88-8.02,17.88-17.88v-28.24h12.23v28.24C767.52,585.71,754.01,599.22,737.41,599.22z" class="st0"/><path d="M670.09,539.01c-16.59,0-30.1,13.5-30.1,30.1c0,16.59,13.5,30.1,30.1,30.1l12.22-12.22h-12.22 c-9.85,0-17.87-8.02-17.87-17.87c0-9.86,8.02-17.88,17.87-17.88s17.87,8.02,17.87,17.88v58.82h12.22v-58.82 C700.19,552.51,686.68,539.01,670.09,539.01z" class="st0"/></g><g><path d="M325.89,795.61v29.66c-20.21,0-38.4-7.26-52.76-19.31c-18.03-15.14-29.5-37.86-29.5-63.25V594.17h29.5v67.4 h52.76v29.85h-52.76v52.02C273.54,772.32,296.93,795.61,325.89,795.61z" class="st0"/><path d="M431.01,661.57v29.46c-27.97,0.06-50.74,22.24-51.76,49.97v84.27H349.7v-163.7h29.55v18.68 C393.31,668.61,411.34,661.6,431.01,661.57z" class="st0"/><path d="M449.97,645.21v-25.82h29.5v25.82H449.97z M449.97,825.27v-163.7h29.5v163.7H449.97z" class="st0"/><path d="M660.36,661.57l-81.79,163.7l-81.89-163.7h33.53l48.36,96.68l48.26-96.68H660.36z" class="st0"/><path d="M837.24,661.57c0,0,0,178.97,0,190.82c0,45.69-37.5,82.18-81.9,82.14c-20.81,0.02-40.08-7.87-54.7-20.99 l21.21-21.21c9.05,7.67,20.74,12.32,33.5,12.3c28.74,0,52.01-23.51,52.01-52.25v-45.74c-14.26,11.8-32.47,18.64-52.01,18.62 c-44.51,0.04-81.98-35.88-81.98-81.92c0-0.97,0-81.78,0-81.78h29.89c0,0,0.01,79.6,0.01,81.78c0,28.63,23.32,52.29,52.08,52.26 c28.75,0,52.01-23.51,52.01-52.26v-81.77H837.24z" class="st0"/></g><g><g><g><path d="M435.42,288.09c0.03,0,0.05,0,0.08,0c4.2,0.01,7.68-3.22,7.68-7.42V141.42l-7.84-4.38l-7.81,4.36v139.27 c0,4.2,3.48,7.44,7.68,7.42C435.28,288.09,435.35,288.09,435.42,288.09z" class="st1"/><path d="M388.42,351.3L259.22,438v9.87l7.36,4.03l130.54-87.61c3.35-2.25,4.19-6.74,2.02-10.15 c-0.09-0.14-0.18-0.29-0.27-0.44C396.62,350.11,391.94,348.93,388.42,351.3z" class="st2"/><path d="M473.69,364.37l130.42,87.53l7.34-4.02v-9.89L482.4,351.37c-3.53-2.37-8.21-1.2-10.46,2.41 c-0.09,0.14-0.17,0.27-0.26,0.41C469.5,357.61,470.33,362.11,473.69,364.37z" class="st3"/><path d="M627.1,235.16v-8.95l-8.01-4.47l-0.59-0.31L442.97,123.4l-7.63-4.25l-7.6,4.25l-175.55,98.02l-0.6,0.31 l-8.01,4.47v8.95l-0.6,0.34l0.6,0.31v8.92v212.41l8.13,4.44l170.98,93.67l2.16,1.19l10.51,5.76l10.48-5.76l2.16-1.19 l170.98-93.67l8.1-4.44V244.73v-8.89l0.63-0.34L627.1,235.16z M443.37,539.99V381.95c0-4.31-3.52-7.83-7.83-7.82l-0.12,0 l-0.08,0c-4.31,0-7.83,3.52-7.83,7.82v158.04l-160.92-88.09l-7.36-4.03V438V243.1l128.13,70.2c3.7,2.03,8.39,0.66,10.43-3.02 l0.09-0.16c2.07-3.73,0.69-8.47-3.05-10.52l-126.47-69.29l159.17-88.91l7.81-4.36l7.84,4.38l159.14,88.89l-126.58,69.35 c-3.72,2.04-4.89,6.7-2.82,10.4c0.04,0.06,0.07,0.13,0.1,0.19c2.03,3.67,6.55,5.13,10.23,3.12l128.2-70.26v194.88v9.89 l-7.34,4.02L443.37,539.99z" class="st0"/></g><circle cx="435.42" cy="331.11" r="22.7" class="st4"/></g><path d="M556.59,222.79L434,154.07c-3.77-2.11-5.11-6.88-3-10.65v0c2.11-3.77,6.88-5.11,10.65-3l122.59,68.72 c3.77,2.11,5.11,6.88,3,10.65v0C565.13,223.56,560.36,224.9,556.59,222.79z" class="st1"/><path d="M502.87,228.09L434,189.49c-3.77-2.11-5.11-6.88-3-10.65v0c2.11-3.77,6.88-5.11,10.65-3l68.87,38.6 c3.77,2.11,5.11,6.88,3,10.65v0C511.4,228.86,506.64,230.2,502.87,228.09z" class="st1"/><path d="M525.43,240.74L525.43,240.74c-3.77-2.11-5.11-6.88-3-10.65l0,0c2.11-3.77,6.88-5.11,10.65-3v0 c3.77,2.11,5.11,6.88,3,10.65l0,0C533.97,241.51,529.2,242.85,525.43,240.74z" class="st1"/><path d="M457.05,239.02l-22.87-12.82c-3.77-2.11-5.11-6.88-3-10.65v0c2.11-3.77,6.88-5.11,10.65-3l22.87,12.82 c3.77,2.11,5.11,6.88,3,10.65l0,0C465.58,239.79,460.82,241.14,457.05,239.02z" class="st1"/><path d="M491.56,260.09l-13.24-7.42c-3.77-2.11-5.11-6.88-3-10.65v0c2.11-3.77,6.88-5.11,10.65-3l13.24,7.42 c3.77,2.11,5.11,6.88,3,10.65v0C500.1,260.86,495.33,262.2,491.56,260.09z" class="st1"/></g></g></g></switch></svg>